<mxfile host="app.diagrams.net" modified="2020-12-02T17:09:10.510Z" agent="5.0 (Windows)" etag="HfVjoddhPfexLeHqnNKL" version="13.10.5" type="github">
  <diagram id="GLyw0UTV-4VSbwquhsbL" name="Page-1">
    <mxGraphModel dx="1038" dy="547" grid="1" gridSize="10" guides="1" tooltips="1" connect="1" arrows="1" fold="1" page="1" pageScale="1" pageWidth="1169" pageHeight="827" math="0" shadow="0">
      <root>
        <mxCell id="0" />
        <mxCell id="1" parent="0" />
        <mxCell id="RNq8ScFQBWIx0PEXSHT9-5" value="Training - Registration Process" style="swimlane;html=1;childLayout=stackLayout;resizeParent=1;resizeParentMax=0;horizontal=1;startSize=20;horizontalStack=0;" vertex="1" parent="1">
          <mxGeometry x="10" y="10" width="920" height="570" as="geometry" />
        </mxCell>
        <mxCell id="RNq8ScFQBWIx0PEXSHT9-6" value="Prospective student" style="swimlane;html=1;startSize=20;horizontal=0;" vertex="1" parent="RNq8ScFQBWIx0PEXSHT9-5">
          <mxGeometry y="20" width="920" height="200" as="geometry" />
        </mxCell>
        <mxCell id="RNq8ScFQBWIx0PEXSHT9-9" value="Start" style="rounded=1;whiteSpace=wrap;html=1;" vertex="1" parent="RNq8ScFQBWIx0PEXSHT9-6">
          <mxGeometry x="410" y="10" width="100" height="50" as="geometry" />
        </mxCell>
        <mxCell id="RNq8ScFQBWIx0PEXSHT9-13" value="Students fills and submits the admission form online and attaches relevant documents" style="rounded=0;whiteSpace=wrap;html=1;" vertex="1" parent="RNq8ScFQBWIx0PEXSHT9-6">
          <mxGeometry x="380" y="120" width="160" height="70" as="geometry" />
        </mxCell>
        <mxCell id="RNq8ScFQBWIx0PEXSHT9-11" value="" style="edgeStyle=orthogonalEdgeStyle;rounded=0;orthogonalLoop=1;jettySize=auto;html=1;entryX=0.5;entryY=0;entryDx=0;entryDy=0;" edge="1" parent="RNq8ScFQBWIx0PEXSHT9-6" source="RNq8ScFQBWIx0PEXSHT9-9" target="RNq8ScFQBWIx0PEXSHT9-13">
          <mxGeometry relative="1" as="geometry">
            <mxPoint x="460" y="135" as="targetPoint" />
          </mxGeometry>
        </mxCell>
        <mxCell id="RNq8ScFQBWIx0PEXSHT9-7" value="Desk officer" style="swimlane;html=1;startSize=20;horizontal=0;" vertex="1" parent="RNq8ScFQBWIx0PEXSHT9-5">
          <mxGeometry y="220" width="920" height="170" as="geometry" />
        </mxCell>
        <mxCell id="RNq8ScFQBWIx0PEXSHT9-8" value="Centre Administrator" style="swimlane;html=1;startSize=20;horizontal=0;" vertex="1" parent="RNq8ScFQBWIx0PEXSHT9-5">
          <mxGeometry y="390" width="920" height="180" as="geometry" />
        </mxCell>
      </root>
    </mxGraphModel>
  </diagram>
</mxfile>
